# xmcd
#
# Track frame offsets:
#	150
#	13115
#	25120
#	37322
#	52290
#	62432
#	78427
#	91945
#	101990
#	114242
#	130770
#	143170
#	150902
#	164625
#	173627
#	184375
#	196452
#	208957
#
# Disc length: 2932 seconds
#
# Revision: 1
# Processed by: cddbd v1.5.1PL0 Copyright (c) Steve Scherf et al.
# Submitted via: CDex 1.50Beta5
#
DISCID=fe0b7212
DTITLE=不明 - 映画音楽
DYEAR=1900
DGENRE=
TTITLE0=レオン・ポップス/アラモ
TTITLE1=レオン・ポップス/駅馬車
TTITLE2=スクリーン・ポップス/ok牧場の決闘
TTITLE3=ロベール・ベルナール・ケストラ/大いなる西部
TTITLE4=スクリーン・ポップス/黄色いリボン
TTITLE5=スクリーン・ポップス/シェーン「遥かなる山の呼び声」
TTITLE6=スクリーン・ポップス/ジャニ・ギター
TTITLE7=スクリーン・ポップス/ジャイアンツ「テキサスの黄色いバラ」
TTITLE8=スクリーン・ポップス/誇り高き男
TTITLE9=レオン・ポップス/真昼の決闘
TTITLE10=スクリーン・ポップス/リオ・ブラボー
TTITLE11=スクリーン・ポップス/ローハイド
TTITLE12=レオン・ポップス/グリーン・スリーブス
TTITLE13=リチャード・ハミルトン・オーケストラ/いとしのクレメンタイン
TTITLE14=フィルム・フェスティヴァル・オーケストラ/荒野の7人
TTITLE15=ユベール・ビアンコ・オーケストラ/荒野の用心棒
TTITLE16=スクリーン・ポップス/夕日のガンマン
TTITLE17=ロベール・ベルナール・ケストラ/さすらいの一匹狼
EXTD=
EXTT0=
EXTT1=
EXTT2=
EXTT3=
EXTT4=
EXTT5=
EXTT6=
EXTT7=
EXTT8=
EXTT9=
EXTT10=
EXTT11=
EXTT12=
EXTT13=
EXTT14=
EXTT15=
EXTT16=
EXTT17=
PLAYORDER=
